<svg width="102" height="50" viewBox="0 0 102 50" fill="none" xmlns="http://www.w3.org/2000/svg">
<g clip-path="url(#clip0)">
<path d="M52.7843 43.3482C50.8184 43.2161 48.5515 42.8688 46.7635 42.347C46.4286 42.2491 45.0419 41.7354 44.6892 41.5724C38.4645 38.6664 34.1281 32.3228 34.1281 24.9633C34.1281 14.869 42.2767 6.64688 52.2989 6.64688C62.2322 6.64688 70.3257 14.7288 70.4649 24.7089H77.0293C76.8902 11.0825 65.8534 0.039135 52.2989 0.039135C38.6635 0.039135 27.5653 11.2178 27.5653 24.9633C27.5653 34.4395 32.8531 42.6813 40.5955 46.8918C41.9935 47.6371 43.9999 48.4051 44.6811 48.6155C46.8881 49.2776 49.5968 49.7179 52.0077 49.9022C52.8264 49.9641 55.6855 49.9967 56.5188 50H101.724V43.4102H56.5949C55.9946 43.4102 53.3717 43.3874 52.7843 43.3482ZM56.5949 33.0012C56.1175 33.0012 53.6209 32.9849 53.1597 32.9458C52.3782 32.8789 51.2456 32.7615 50.5174 32.5935C49.6955 32.3717 48.9236 32.0782 48.5758 31.8858C46.1373 30.5567 44.4756 27.9573 44.4756 24.9633C44.4756 20.6076 47.9755 17.0754 52.2989 17.0754C56.5318 17.0754 59.9734 20.469 60.1109 24.7089H66.4181C66.2854 16.9629 60.0203 10.7205 52.2989 10.7205C44.4918 10.7205 38.1636 17.0966 38.1636 24.9633C38.1636 30.5111 41.3188 35.3022 45.9141 37.6488C46.6211 38.0663 47.9512 38.5033 48.3298 38.6028C49.6275 38.9469 51.3702 39.1817 52.7843 39.2861C53.307 39.3301 55.8667 39.3497 56.4072 39.3529V39.3627H101.723V33.0012H56.5949ZM23.5201 49.9755H16.912V6.66156H7.25538V-3.10928e-06H23.5201V49.9755ZM0 9.98989V16.3954H7.25538V49.9755H13.6046V9.98989H0Z" fill="white"/>
<path d="M90.0475 0.465157C87.6674 0.465157 85.6933 2.37801 85.6933 4.77845C85.6933 7.1789 87.6674 9.1684 90.0475 9.1684C92.5005 9.1684 94.3985 7.1789 94.3985 4.77845C94.3985 2.37801 92.5005 0.465157 90.0475 0.465157ZM90.0475 8.46066C88.0816 8.46066 86.3875 6.9033 86.3875 4.77845C86.3875 2.76123 88.0816 1.16474 90.0475 1.16474C92.0118 1.16474 93.6979 2.76123 93.6979 4.77845C93.6979 6.9033 92.0118 8.46066 90.0475 8.46066Z" fill="white"/>
<path d="M91.7053 5.96017C91.7053 5.47584 91.6341 5.02575 91.084 4.848C91.7733 4.60665 91.8412 4.15168 91.8412 3.87608C91.8412 2.76229 90.8381 2.62042 90.4254 2.62042H88.5275V6.93372H89.3187V5.16437H89.9416C90.8381 5.16437 90.9125 5.5802 90.9125 5.96017C90.9125 6.69563 90.9125 6.83424 91.084 6.93372H91.8768C91.7053 6.75923 91.7733 6.62388 91.7053 5.96017ZM90.2523 4.5349H89.3187V3.1765H90.118C90.6714 3.1765 91.0468 3.35262 91.0468 3.87608C91.0468 4.15168 90.9125 4.5349 90.2523 4.5349Z" fill="white"/>
</g>
<defs>
<clipPath id="clip0">
<rect width="101.724" height="50" fill="white"/>
</clipPath>
</defs>
</svg>
