<svg width="61" height="58" viewBox="0 0 61 58" fill="none" xmlns="http://www.w3.org/2000/svg">
<path fill-rule="evenodd" clip-rule="evenodd" d="M24.4961 23.8047C26.1774 26.0986 28.3661 27.6547 30.4702 27.6547C32.5809 27.6547 34.7761 26.0986 36.4535 23.8047C38.1763 21.455 39.3501 18.3571 39.3696 15.3555L38.7814 12.9719C38.5705 12.1236 38.5563 11.3247 38.5355 10.5675C38.5211 9.58513 38.5016 8.66787 37.9551 7.91063C37.0846 6.70973 35.6973 7.10394 34.0825 7.56713C32.9816 7.87549 31.7832 8.21898 30.4702 8.21898C29.1742 8.21898 27.9757 7.87549 26.8749 7.56713C25.247 7.10394 23.8729 6.71103 22.9972 7.91063C22.4558 8.66787 22.4362 9.58643 22.4141 10.574C22.392 11.3247 22.379 12.1249 22.1695 12.9732L21.5787 15.3568C21.6009 18.3584 22.7721 21.4563 24.4975 23.806L24.4961 23.8047ZM0 46.0313C0 47.1684 0.918666 48.1 2.06117 48.1C4.43856 48.1 6.83033 48.1 9.21553 48.1V41.3955C9.21553 40.4769 9.36907 39.5674 9.69308 38.7048C10.9059 35.4378 14.1317 33.4185 17.2664 32.1981C9.9924 30.789 0 32.6678 0 37.8292C0 40.5706 0 43.2964 0 46.0326V46.0313ZM60.8975 46.0313V37.8279C60.8975 32.6665 50.9052 30.7877 43.6337 32.1968C46.7685 33.4094 49.9865 35.4365 51.2019 38.7035C51.5233 39.5661 51.6846 40.4704 51.6846 41.4033L51.6767 48.1C54.0685 48.1 56.4459 48.1 58.8376 48.1C59.9749 48.1 60.8988 47.1684 60.8988 46.0313H60.8975ZM32.5743 36.0753L31.4176 38.2338C31.3044 38.4381 31.2484 38.6268 31.277 38.8441L32.2946 51.06C35.3578 44.6222 37.1327 40.4587 39.0468 32.7029C45.1887 34.0482 49.8941 36.9523 49.8941 41.3968V54.1644C49.8941 56.2748 48.1712 58 46.0592 58C35.6505 58 25.2392 58 14.8305 58C12.7212 58 11.0022 56.2682 11.0022 54.1644C11.0022 49.9085 11.0022 45.6539 11.0022 41.3968C11.0022 36.9523 15.7075 34.056 21.8442 32.7029C23.7805 40.542 25.5749 44.7197 28.6966 51.2772L29.7428 38.8454C29.7624 38.6203 29.7077 38.4394 29.5931 38.2351L28.4364 36.0766C28.3674 35.9491 28.3609 35.8021 28.422 35.6772C28.5001 35.5497 28.6263 35.4729 28.7734 35.4729C29.9302 35.4729 31.0871 35.4729 32.2361 35.4729C32.3909 35.4729 32.5185 35.551 32.5874 35.6772C32.6564 35.8021 32.6433 35.9491 32.5731 36.0766L32.5743 36.0753ZM8.52716 26.8688C7.41199 25.3465 6.65466 23.3403 6.64034 21.399L7.02551 19.8572C7.15824 19.303 7.17261 18.7916 7.18041 18.3011C7.19473 17.6636 7.20766 17.0664 7.5577 16.5824C7.82446 15.7497 17.1506 15.7276 17.243 16.5824C17.5931 17.0677 17.6009 17.6636 17.623 18.3011C17.6295 18.7916 17.6373 19.303 17.7765 19.8572L18.1565 21.399C18.1421 23.3403 17.3913 25.3465 16.2696 26.8688C15.1818 28.356 13.7647 29.3656 12.3971 29.3656C11.0373 29.3656 9.62022 28.356 8.52716 26.8688ZM12.3971 30.3037C14.081 30.3037 15.7778 29.1405 17.027 27.4218C18.2671 25.746 19.1025 23.5107 19.1025 21.3496V21.3014L19.0947 21.2741C19.1025 21.1245 19.1025 20.9853 19.1025 20.8382C19.1025 16.1257 19.8455 12.2198 14.2423 11.5628C13.6814 11.4574 13.0439 11.3936 12.336 11.3936C11.5344 11.3936 10.8356 11.4769 10.211 11.6044C4.9852 12.389 5.69439 16.2259 5.69439 20.8382C5.69439 20.9853 5.70087 21.1245 5.70087 21.2741L5.69439 21.3014V21.3496C5.69439 23.5107 6.5297 25.7459 7.76979 27.4296C9.03201 29.1405 10.7159 30.3037 12.3971 30.3037ZM44.6916 26.8688C43.5622 25.3465 42.8114 23.3403 42.7971 21.399L43.1822 19.8572C43.315 19.303 43.3227 18.7916 43.337 18.3011C43.3513 17.6636 43.3644 17.0664 43.7144 16.5824C43.9747 15.7497 53.3072 15.7276 53.3996 16.5824C53.751 17.0677 53.7653 17.6636 53.7796 18.3011C53.7861 18.7916 53.794 19.303 53.9332 19.8572L54.3184 21.399C54.3041 23.3403 53.5415 25.3465 52.4264 26.8688C51.3385 28.356 49.9292 29.3656 48.5564 29.3656C47.1953 29.3656 45.7795 28.356 44.6916 26.8688ZM48.5564 30.3037C50.2454 30.3037 51.928 29.1405 53.1902 27.4218C54.4251 25.746 55.2591 23.5107 55.2591 21.3496V21.3014L55.2527 21.2741C55.2592 21.1245 55.2591 20.9853 55.2591 20.8382C55.2591 16.1751 55.9813 12.3109 50.5759 11.5823C49.9851 11.4626 49.3202 11.3936 48.5564 11.3936C47.8134 11.3936 47.1445 11.4626 46.5564 11.5823C41.1301 12.2979 41.851 16.1673 41.851 20.8382C41.851 20.9853 41.8511 21.1245 41.8589 21.2741L41.851 21.3014V21.3496C41.851 23.5107 42.6864 25.7459 43.9265 27.4296C45.1887 29.1405 46.8726 30.3037 48.5564 30.3037ZM30.4689 29.1132C27.869 29.1132 25.2665 27.3099 23.325 24.6673C21.4109 22.0652 20.1188 18.6173 20.1188 15.2774V15.2019L20.1331 15.1525C20.1188 14.9417 20.1188 14.7114 20.1188 14.4928C20.1188 6.49243 18.7368 0 30.4689 0C42.2011 0 40.8269 6.49373 40.8269 14.4928C40.8269 14.7114 40.827 14.9417 40.8127 15.1525L40.8269 15.2019V15.2774C40.8269 18.616 39.5283 22.0652 37.6219 24.6673C35.6804 27.3112 33.0702 29.1132 30.4677 29.1132H30.4689Z" fill="white"/>
</svg>
