<svg width="85" height="54" viewBox="0 0 85 54" fill="none" xmlns="http://www.w3.org/2000/svg">
<path fill-rule="evenodd" clip-rule="evenodd" d="M69.5223 42.6215C67.749 42.6215 66.3078 44.0699 66.3078 45.8445C66.3078 47.6265 67.749 49.0644 69.5223 49.0644C71.306 49.0644 72.7545 47.625 72.7545 45.8445C72.7545 44.0699 71.306 42.6215 69.5223 42.6215ZM61.7969 6.86514C60.8815 6.86514 60.1343 7.61378 60.1343 8.52765V11.9645C60.1343 12.8799 60.8815 13.6285 61.7969 13.6285H77.2565C78.172 13.6285 78.9206 12.8799 78.9206 11.9645V8.52765C78.9206 7.61378 78.172 6.86514 77.2565 6.86514H61.7969ZM62.0834 28.9828V30.9655H76.9701V28.9828H62.0834ZM62.0834 34.4749V36.4621H76.9701V34.4749H62.0834ZM62.0834 23.4937V25.4764H76.9701V23.4937H62.0834ZM17.8487 48.1904H34.0007C34.0007 50.1953 34.0007 49.0275 34.0007 51.0236H41.9904C42.9059 51.0236 43.653 51.7722 43.653 52.6949V54H8.20377V52.6949C8.20377 51.7722 8.95239 51.0236 9.86786 51.0236H17.8487C17.8487 49.0275 17.8487 50.1953 17.8487 48.1904ZM4.66151 3.03104C3.58805 3.03104 2.70654 3.8977 2.70654 4.97988V40.1855C2.70654 41.2618 3.58805 42.1358 4.66151 42.1358H48.0221C49.1044 42.1358 49.9727 41.2603 49.9727 40.1855V4.97988C49.9727 3.8977 49.1044 3.03104 48.0221 3.03104H4.66151ZM46.0731 6.92873H6.61942V38.2308H46.0731V6.92873ZM4.35289 0H48.3396C50.7287 0 52.6866 1.94895 52.6866 4.34363V40.9031C52.6866 43.2978 50.7287 45.2554 48.3396 45.2554H4.35289C1.95791 45.2554 0 43.2978 0 40.9031V4.34363C0 1.94895 1.95791 0 4.35289 0ZM59.3931 0H79.6618C82.048 0 84.0059 1.95485 84.0059 4.34363V49.6461C84.0059 52.0408 82.048 53.9984 79.6618 53.9984H59.3931C57.007 53.9984 55.0491 52.0408 55.0491 49.6461V4.34363C55.0491 1.95485 57.007 0 59.3931 0Z" fill="white"/>
</svg>
