<svg width="76" height="54" viewBox="0 0 76 54" fill="none" xmlns="http://www.w3.org/2000/svg">
<path fill-rule="evenodd" clip-rule="evenodd" d="M39.3241 48.0516C38.979 47.7123 38.4907 47.496 37.9595 47.496C37.4283 47.496 36.9488 47.7123 36.6008 48.0516C36.2529 48.4052 36.038 48.8848 36.038 49.4188C36.038 49.9499 36.2529 50.4295 36.6008 50.7745C36.9488 51.1224 37.4269 51.3386 37.9595 51.3386C38.4907 51.3386 38.979 51.1224 39.3241 50.7745C39.6649 50.4295 39.8796 49.9499 39.8796 49.4188C39.8796 48.8848 39.6649 48.4066 39.3241 48.0516ZM26.1156 4.73727H49.8036C50.8532 4.73727 51.7022 5.58623 51.7022 6.62846V44.1317C51.7022 45.1725 50.8532 46.0301 49.8036 46.0301H26.1156C25.0746 46.0301 24.217 45.1725 24.217 44.1317V6.62846C24.217 5.5848 25.0746 4.73727 26.1156 4.73727ZM50.6226 54H25.298C23.2448 54 21.5624 52.3178 21.5624 50.2663V3.73513C21.5624 1.675 23.2448 0 25.298 0H50.6226C52.683 0 54.3653 1.675 54.3653 3.73513V50.2663C54.3653 52.3178 52.683 54 50.6226 54ZM18.0673 35.622C18.5928 36.2534 18.5469 37.1725 17.9671 37.758L16.4709 39.2555C16.1387 39.5791 15.7378 39.7409 15.2739 39.7165C14.8186 39.7008 14.4247 39.509 14.1255 39.1611C7.69662 31.5605 7.69662 20.368 14.1255 12.7588C14.4247 12.4109 14.8186 12.219 15.2739 12.2033C15.7378 12.1818 16.1373 12.335 16.4709 12.6671L17.9671 14.1632C18.5469 14.7487 18.5928 15.6679 18.0673 16.2992C13.4397 21.8941 13.4397 30.0243 18.0673 35.6192V35.622ZM11.4309 42.1718C3.24376 32.9363 3.24376 18.9964 11.4309 9.75088C11.995 9.11952 11.9649 8.17032 11.3635 7.57476L9.87449 6.073C9.55663 5.75518 9.15706 5.60053 8.7089 5.60912C8.25358 5.62487 7.85997 5.80102 7.55785 6.14032C-2.51928 17.4059 -2.51928 34.5168 7.55785 45.7824C7.85997 46.1217 8.25358 46.2992 8.7089 46.3135C9.15706 46.3221 9.55806 46.1675 9.87449 45.8439L11.3635 44.355C11.9649 43.7537 11.995 42.8046 11.4309 42.1718ZM57.5368 35.622C57.0028 36.2534 57.0515 37.1725 57.6371 37.758L59.1334 39.2555C59.457 39.5791 59.8664 39.7409 60.3218 39.7165C60.7857 39.7008 61.1794 39.509 61.4729 39.1611C67.9075 31.5605 67.9075 20.368 61.4729 12.7588C61.1794 12.4109 60.7857 12.219 60.3218 12.2033C59.8664 12.1818 59.4584 12.335 59.1334 12.6671L57.6371 14.1632C57.0515 14.7487 57.0028 15.6679 57.5368 16.2992C62.1588 21.8941 62.1588 30.0243 57.5368 35.6192V35.622ZM64.1576 42.1718C72.3505 32.9363 72.3505 18.9964 64.1576 9.75088C63.6021 9.11952 63.6321 8.17032 64.2249 7.57476L65.7225 6.073C66.0404 5.75518 66.4399 5.60053 66.8953 5.60912C67.3434 5.62487 67.7285 5.80102 68.0306 6.14032C78.1135 17.4059 78.1135 34.5168 68.0306 45.7824C67.7285 46.1217 67.3434 46.2992 66.8953 46.3135C66.4399 46.3221 66.0404 46.1675 65.7225 45.8439L64.2249 44.355C63.6321 43.7537 63.6021 42.8046 64.1576 42.1718ZM47.915 8.52399H28.0157V42.2319H47.915V8.52399Z" fill="white"/>
</svg>
