<svg width="65" height="57" viewBox="0 0 65 57" fill="none" xmlns="http://www.w3.org/2000/svg">
<path fill-rule="evenodd" clip-rule="evenodd" d="M10.6062 35.1207C9.13971 35.1207 7.94656 36.5596 7.94656 38.3316C7.94656 40.1049 9.13971 41.5492 10.6062 41.5492C12.0649 41.5492 13.2581 40.1049 13.2581 38.3316C13.2581 38.2462 13.2516 38.1709 13.2516 38.0867L17.0435 35.5401V46.9521C17.0357 47.2254 16.9165 47.4571 16.7429 47.6307C16.5693 47.7965 16.331 47.9094 16.0719 47.9456L5.25841 49.0957L5.23637 49.1061H5.1677C4.90213 49.1061 4.67154 48.9858 4.49665 48.8187C4.33601 48.649 4.23107 48.4287 4.20386 48.1969V48.1063L4.19608 48.084V6.39681L4.20386 6.38239V6.31889C4.22589 6.07407 4.33601 5.84364 4.49665 5.67654C4.67024 5.50297 4.90861 5.38383 5.17289 5.38383L5.18715 5.39015H5.25063L16.0654 6.35406C16.3232 6.38385 16.5603 6.48607 16.7416 6.66094C16.9152 6.83063 17.0344 7.06906 17.0422 7.33719V32.4533L12.1621 35.7359C11.7281 35.3447 11.1905 35.1207 10.6049 35.1207H10.6062ZM47.5251 22.556C51.7627 22.556 55.1892 25.9834 55.1892 30.2217C55.1892 34.4509 51.7614 37.877 47.5251 37.877C43.2941 37.877 39.8584 34.4496 39.8584 30.2217C39.8584 25.9834 43.2941 22.556 47.5251 22.556ZM47.5251 17.3423C54.64 17.3423 60.4062 23.1065 60.4062 30.2217C60.4062 37.3278 54.6387 43.0932 47.5251 43.0932C40.4103 43.0932 34.6518 37.3266 34.6518 30.2217C34.6518 23.1065 40.4103 17.3423 47.5251 17.3423ZM47.5251 56.9714C43.1749 51.8886 36.9474 45.544 33.232 40.2746C31.1514 37.3226 30.0502 33.8317 30.0502 30.223C30.0502 20.5689 37.875 12.749 47.5251 12.749C57.1804 12.749 65 20.5689 65 30.223C65 33.8823 63.904 37.2798 61.8157 40.2746C58.1093 45.5375 51.8754 51.8886 47.5251 56.9714ZM17.7897 2.14551L3.32292 0.0302372C3.21151 0.00821664 3.09363 0.0029139 2.97444 0.0029139C2.24249 0.0029139 1.57142 0.337219 1.05452 0.861826C0.52466 1.40457 0.154166 2.13773 0.0349808 2.91234C0.0129574 3.08202 0 3.24905 0 3.42262V51.3251C0 51.5272 0.0220145 51.7371 0.0556973 51.9391C0.187837 52.6956 0.558365 53.4066 1.07656 53.9299C1.57921 54.4325 2.21399 54.7524 2.91097 54.7524C3.04311 54.7524 3.17656 54.7382 3.31647 54.7175L17.7754 52.1489C17.9918 52.1087 18.2004 52.0595 18.3973 52.0102C18.5994 51.9468 18.7872 51.8782 18.9777 51.8005L19.1435 51.7292L19.3054 51.8005C19.4933 51.8782 19.6889 51.9468 19.8832 52.0102C20.0788 52.0595 20.2887 52.1087 20.505 52.1489L34.964 54.7175C35.1544 54.7525 35.3423 54.7591 35.5159 54.7448C35.6986 54.7384 35.8787 54.6968 36.0548 54.6502L36.1792 54.6153L36.3062 54.6502C36.4798 54.6981 36.6624 54.7397 36.8503 54.7448C37.0239 54.7591 37.2065 54.7525 37.3944 54.7175L40.4802 54.167L40.3416 54.0205C38.2325 51.6876 36.0548 49.2681 34.0857 46.9132V48.1296L34.0779 48.1774V48.1994C34.0507 48.4351 33.9393 48.6579 33.7787 48.8288C33.596 49.0024 33.3589 49.1113 33.0933 49.1074H33.0376L33.0234 49.097L22.2086 47.9469C21.9573 47.9119 21.7137 47.798 21.5375 47.6322C21.364 47.4586 21.2448 47.2267 21.2383 46.9534V31.7994L26.7454 22.0533C26.9553 22.1168 27.1794 22.1517 27.4087 22.1517C27.7313 22.1517 28.0383 22.0805 28.3169 21.9562C28.8687 20.6854 29.5385 19.4846 30.3132 18.3629L30.0062 18.2695C29.7471 16.8188 28.6783 15.7232 27.4074 15.7232C25.9409 15.7232 24.7556 17.1595 24.7556 18.9341C24.7556 19.3383 24.8113 19.7216 24.9214 20.0701L21.237 26.596V7.33719C21.2435 7.06776 21.3614 6.83063 21.5363 6.66094C21.7124 6.48736 21.956 6.38385 22.2151 6.35406L33.0286 5.39015H33.0843C33.3498 5.38368 33.5947 5.49636 33.7774 5.67123C33.9432 5.82926 34.0559 6.06886 34.0766 6.32016V6.33458L34.0844 6.36949V14.2232C35.3605 13.139 36.7635 12.2193 38.2805 11.4706V6.36949L38.2883 6.33458V6.32016C38.3077 6.07534 38.4204 5.82926 38.5875 5.67123C38.7702 5.49765 39.0124 5.38368 39.2728 5.39015H39.3363L50.1433 6.35406C50.4141 6.38385 50.6602 6.49391 50.8338 6.66878C51.0074 6.85142 51.1266 7.0857 51.1266 7.36679V9.62855C52.5788 9.87725 53.9818 10.2851 55.3227 10.8214V5.5379C55.3227 4.6519 54.9664 3.90972 54.4029 3.34495C53.7681 2.71025 52.8677 2.2958 51.8754 2.14425L37.4086 0.0289722C37.2208 0.00177037 37.0329 -0.00599146 36.8567 0.00696179C36.6689 0.0225057 36.481 0.0638752 36.3062 0.118279L36.1792 0.1623L36.0548 0.118279C35.8787 0.0651705 35.6986 0.023801 35.5107 0.00696179C35.3281 -0.00728679 35.1402 0.000475044 34.9589 0.0289722L20.4921 2.14425C20.29 2.17922 20.0801 2.22194 19.878 2.27505C19.6759 2.32427 19.4803 2.39532 19.2976 2.46656L19.1435 2.53411L18.9828 2.46656C18.8028 2.39532 18.6072 2.32427 18.4025 2.27505C18.2004 2.22194 17.9983 2.18052 17.7884 2.14425L17.7897 2.14551Z" fill="white"/>
</svg>
