<svg width="59" height="58" viewBox="0 0 59 58" fill="none" xmlns="http://www.w3.org/2000/svg">
<path fill-rule="evenodd" clip-rule="evenodd" d="M49.5153 49.512C44.2671 54.7506 37.0103 58 29.0022 58C20.9911 58 13.7432 54.7506 8.48909 49.512C3.24836 44.2556 0 37.0085 0 28.9985C0 20.9914 3.24836 13.7355 8.48909 8.48798C13.7447 3.24791 20.9926 0 29.0022 0C37.0103 0 44.2671 3.24791 49.5153 8.48798C54.7635 13.7355 58.0044 20.9914 58.0044 28.9985C58.0044 37.0085 54.7635 44.2556 49.5153 49.512ZM9.20023 13.6152C10.4325 13.6078 11.6632 13.6553 12.8955 13.7607C12.9934 12.3282 13.1671 10.8557 13.4166 9.36089C12.6639 9.95318 11.9512 10.5826 11.2713 11.2639C10.5275 12.0076 9.84011 12.7929 9.20023 13.6152ZM6.63033 38.0477C6.27848 38.0091 5.91772 37.969 5.55695 37.92C5.75886 38.4484 5.97412 38.9739 6.21463 39.4876C6.34231 39.0007 6.47742 38.5197 6.63033 38.0477ZM54.0835 28.7372V29C54.0835 31.8486 53.6114 34.5919 52.725 37.1525C51.9308 35.6904 50.8604 34.1614 49.5732 32.6235C51.4126 31.4553 52.9314 30.1519 54.0835 28.7372ZM48.2593 31.1524C46.9706 29.7778 45.5157 28.4092 43.9064 27.0657C44.2033 24.7366 44.2196 22.4016 43.9375 20.1289C43.3452 20.4006 42.7053 20.5773 42.0253 20.6262C42.2094 22.2562 42.2347 23.9366 42.0892 25.617C39.9691 23.993 37.6323 22.4417 35.1545 21.0345C33.3759 20.0191 31.5305 19.0824 29.6168 18.2333C31.8349 17.4332 34.1049 16.8335 36.3615 16.4327C36.2828 16.0497 36.2249 15.6416 36.2249 15.2244C36.2249 14.9706 36.2501 14.7049 36.2813 14.4644C33.1695 14.9928 30.0325 15.888 27.0083 17.1542C23.1052 15.6326 19.0003 14.5148 14.8478 13.9774C14.9769 11.9779 15.2649 9.88928 15.7118 7.73685C19.5599 5.32166 24.1207 3.92333 29.0022 3.92333C29.7207 3.92333 30.4259 3.95452 31.1297 4.01835C34.2919 5.70616 36.7638 8.04416 38.5617 10.7785C39.0992 10.4015 39.7063 10.1239 40.3626 9.96206C39.1719 8.08276 37.6813 6.37859 35.9146 4.88227C40.0582 6.07576 43.7712 8.30687 46.739 11.2654C47.7708 12.306 48.7151 13.4267 49.5554 14.6262C48.7076 14.4421 47.8347 14.2818 46.9543 14.1705C47.0182 14.5148 47.0493 14.8667 47.0493 15.2244C47.0493 15.5465 47.027 15.8508 46.9706 16.1537C48.3944 16.3437 49.7721 16.648 51.0593 17.0562C52.4682 19.6406 53.4273 22.5055 53.8445 25.5442C52.8037 27.6417 50.9079 29.5374 48.2578 31.1524H48.2593ZM42.1782 33.9372C42.7632 32.4171 43.2101 30.8645 43.5293 29.2969C44.6175 30.2247 45.6181 31.1762 46.5223 32.1203C45.2188 32.7853 43.7623 33.3924 42.1768 33.9372H42.1782ZM4.87104 35.8492C4.25343 33.6745 3.92832 31.378 3.92832 29.0014C3.92832 24.0835 5.34317 19.4817 7.79281 15.6103C9.4645 15.5376 11.1362 15.5791 12.8094 15.7217C12.7693 17.5297 12.848 19.2814 13.0321 20.9618C13.6081 20.7525 14.2153 20.6426 14.8581 20.6426H14.9695C14.8017 19.13 14.7379 17.5624 14.7602 15.9369C18.0575 16.3763 21.3311 17.2017 24.483 18.3061L24.0658 18.5214C22.1061 19.5219 20.2102 20.6797 18.4406 21.9934C18.9275 22.4239 19.3358 22.9524 19.649 23.5373C21.3207 22.2963 23.1052 21.2022 24.9536 20.2567C25.6336 19.9049 26.3373 19.5782 27.0336 19.265C29.5218 20.2744 31.921 21.4487 34.1865 22.7372C36.9628 24.3136 39.5297 26.0504 41.8116 27.8733C41.4255 30.1772 40.7382 32.481 39.7539 34.6899C39.2506 34.8324 38.7309 34.9689 38.2024 35.0951C33.5778 36.2248 28.1277 36.8883 21.9843 36.9685C21.7527 36.7058 21.5122 36.4237 21.2881 36.1446C19.9207 34.4642 18.736 32.6161 17.768 30.6166C17.2232 30.9684 16.607 31.2177 15.9508 31.3513C16.9188 33.3761 18.0872 35.2495 19.4382 36.9685C16.2285 36.9284 12.8539 36.7369 9.31604 36.3762C10.1326 34.4078 11.1733 32.5686 12.3818 30.8629C11.7894 30.5586 11.2609 30.1504 10.8289 29.6635C9.50161 31.5369 8.36585 33.5527 7.47062 35.7275L7.2999 36.1609C6.49226 36.0629 5.68461 35.959 4.86806 35.8477L4.87104 35.8492ZM32.5787 49.9544C30.2329 49.9544 28.3282 48.0498 28.3282 45.7044C28.3282 43.3619 30.2329 41.4574 32.5787 41.4574C34.9214 41.4574 36.8262 43.3619 36.8262 45.7044C36.8262 48.0498 34.9214 49.9544 32.5787 49.9544ZM14.8566 30.2989C17.1994 30.2989 19.1042 28.4033 19.1042 26.0519C19.1042 23.7065 17.1994 21.8108 14.8566 21.8108C12.5109 21.8108 10.6151 23.7065 10.6151 26.0519C10.6151 28.4033 12.5109 30.2989 14.8566 30.2989ZM41.6438 19.4758C43.9865 19.4758 45.8824 17.5713 45.8824 15.2259C45.8824 12.8834 43.9865 10.9789 41.6438 10.9789C39.2981 10.9789 37.3933 12.8834 37.3933 15.2259C37.3933 17.5713 39.2981 19.4758 41.6438 19.4758ZM29.0022 54.0737C34.3231 54.0737 39.2506 52.4274 43.3066 49.6025C42.0031 49.4274 40.7233 49.2107 39.4673 48.9316C38.7235 48.7713 37.996 48.5872 37.2745 48.3957C37.5967 47.8272 37.8194 47.2022 37.9322 46.5386C38.5721 46.7064 39.2268 46.8742 39.8919 47.0196C41.7091 47.4189 43.5961 47.7069 45.5261 47.8746C45.9418 47.508 46.35 47.1309 46.742 46.7391C48.7967 44.6757 50.5026 42.2679 51.7422 39.5959C50.9895 37.7255 49.6608 35.6844 47.8778 33.6121C45.9255 34.6527 43.6688 35.5642 41.1494 36.3242C40.2854 38.0996 39.2372 39.8216 38.0124 41.4441C37.6991 41.8523 37.38 42.2516 37.0444 42.6435C36.6673 42.0987 36.2056 41.6281 35.6607 41.251C35.9324 40.9245 36.1967 40.5965 36.4521 40.2595C37.2434 39.2189 37.956 38.1323 38.581 37.0189C34.3082 38.0506 29.3644 38.7082 23.8416 38.8834C25.2119 40.1719 26.7055 41.3327 28.3237 42.3555C27.9244 42.8676 27.6111 43.4599 27.4121 44.0923C25.0828 42.6271 22.9716 40.9082 21.1292 38.9398C17.2098 38.9561 13.0261 38.7468 8.61675 38.2851C8.20848 39.5232 7.8804 40.8117 7.64137 42.1477C8.67319 43.8117 9.88909 45.357 11.2728 46.7391C13.1627 48.6287 15.3614 50.2201 17.7932 51.4358C21.4825 50.7396 24.7725 49.5179 27.6363 47.9073C27.9065 48.5174 28.2911 49.0681 28.7543 49.5238C26.3952 50.8687 23.7719 51.9643 20.8917 52.7392C23.4334 53.612 26.1621 54.0751 29.0037 54.0751L29.0022 54.0737Z" fill="white"/>
</svg>
