<svg width="150" height="52" viewBox="0 0 150 52" fill="none" xmlns="http://www.w3.org/2000/svg">
<path fill-rule="evenodd" clip-rule="evenodd" d="M75.0103 0H74.2529C72.0558 1.68321 72.1442 1.00184 72.1428 4.62583C72.1428 6.69091 72.2607 9.14684 72.1192 11.1625L71.5106 11.2044C71.129 7.8395 72.128 3.89654 70.8033 2.35859C70.4452 1.94378 69.5581 1.09618 68.7285 1.51699C67.7147 2.06807 68.0286 4.49405 68.0286 5.85979C68.0286 7.28842 68.229 9.93154 67.974 11.2164L67.0177 11.2284L67 12.2647C66.1778 12.3515 64.6836 12.4863 63.9483 12.2737L63.9026 2.23729C63.543 2.57872 63.6035 3.07141 63.3426 3.47424C62.958 4.06726 62.012 4.51801 61.5036 4.99422C60.8332 5.62318 61.3298 5.60521 60.898 6.23566C60.1642 7.30489 59.725 7.02935 59.7383 8.62869L59.756 11.2688C59.6808 12.0281 59.8414 11.6702 59.4686 11.8469C59.2049 11.4171 59.3257 10.5066 59.2992 9.88661L56.8958 10.2355C56.3388 9.74584 55.9586 9.05998 55.3102 8.74251C55.2852 8.98361 55.2218 9.81323 55.1585 9.98694C54.7945 10.9903 54.7429 9.75483 54.5558 10.9558C54.3819 12.0715 54.8534 11.9936 52.6563 12.0101L52.4324 10.6803C52.1922 10.5141 52.1229 10.538 52.0095 10.1876C51.9505 10.0079 51.8901 9.28161 51.8341 8.99858C51.2594 9.55716 51.0958 9.94052 50.5978 10.4152C49.6517 11.3197 48.3624 10.1966 48.302 11.7061L48.2887 14.5065L46.4556 14.6502L46.4364 13.5525L43.0885 13.855C43.0811 14.502 43.1946 15.4394 42.9294 15.8797C42.4519 15.6191 42.6906 15.5143 42.6671 14.3088L40.243 14.5274L40.215 16.3873C36.6844 15.5757 33.2053 12.1074 31.4105 9.08544C30.7533 7.97877 31.272 8.35465 30.3687 7.86346L29.8043 3.67491C29.738 4.55395 30.1167 7.3603 29.8927 7.90839L29.4403 9.1064C29.0867 10.839 28.4221 12.344 27.675 13.6409C25.9951 16.5566 23.5652 18.114 20.3912 18.8792C16.9887 19.6998 13.4536 20.2374 10.0158 20.9697C6.62514 21.6915 3.13427 22.5781 0 23.5365C1.76238 23.4421 6.39085 22.4343 8.51425 22.0959C11.4717 21.6242 14.4645 21.2004 17.4514 20.8275C54.7532 16.1582 104.205 16.1642 141.47 22.5886C143.468 22.933 148.407 24.0756 150 24.1505C148.939 23.8839 147.776 23.4302 146.587 23.1022C145.345 22.7593 144.227 22.4583 142.978 22.1393C136.661 20.528 130.166 19.3943 123.687 18.4659C119.328 17.8414 119.97 18.415 119.97 14.1845L117.331 14.1111L117.237 9.30707L114.683 9.2277L114.676 14.2249L113.721 14.2399L113.719 12.8532L110.377 12.6615C110.295 14.46 110.613 13.9778 109.99 14.174C109.592 13.9464 109.745 14.168 109.72 13.4312C109.708 13.1048 109.735 12.6765 109.736 12.3351C109.738 11.4785 109.763 10.8465 109.834 10.1607C109.216 9.74884 109.446 9.97197 109.169 9.33103C109.156 9.29809 109.138 9.25765 109.123 9.2262L108.949 8.94317C108.932 8.91472 108.907 8.87728 108.889 8.84883C108.871 8.82038 108.849 8.78144 108.83 8.75299C108.347 7.98326 108.083 8.14649 107.925 7.16263C107.819 8.145 107.772 7.88742 107.109 8.35016L106.888 9.17529C106.421 10.237 106.957 9.38195 106.11 10.0888L106.331 11.7181C106.325 12.4578 106.328 13.1991 106.329 13.9389L105.009 13.9164C105.011 10.4137 105.587 11.0277 103.516 9.97347C102.349 9.37895 102.877 9.53769 102.142 8.86231C101.393 9.45532 100.4 9.95999 99.3418 9.96747L99.3403 13.5346L95.7301 13.3339C95.7286 13.59 95.7655 14.174 95.7463 14.3657C95.6505 15.3481 95.8716 14.782 95.4265 14.9916C94.9462 14.6562 95.0714 13.6094 95.1024 12.949C95.1392 12.1673 95.204 11.6791 95.5017 11.0247C95.9187 10.1082 96.0469 9.69792 95.4369 8.93718L94.7782 8.5059C94.7546 8.49392 94.7045 8.47445 94.6677 8.45798C92.0108 9.82821 95.0257 10.8585 94.174 14.9048L92.7535 14.7865C92.6636 6.19822 93.7776 5.73549 89.3894 5.74597L89.3628 13.5016L87.7935 13.4477C87.7419 11.1939 87.7802 8.89076 87.7832 6.634C87.7846 5.42251 88.1383 4.54197 86.9226 4.17807C85.6303 3.79171 85.3547 4.23797 84.2746 4.52849L84.3439 7.09524L82.6065 7.32735L82.5343 13.1048L75.9637 12.8487C75.7221 11.8873 75.8841 7.48909 75.8841 6.16977C75.8841 3.14479 76.3513 1.28786 75.0147 0.00149752L75.0103 0Z" fill="#230258"/>
<path fill-rule="evenodd" clip-rule="evenodd" d="M40.2188 27.3371L46.4343 27.3491L46.4962 24.1474L40.2601 24.1235L40.2188 27.3371ZM40.207 29.2959L40.2085 49.0272L46.5006 49.0317V28.6894L40.2115 28.634L40.2085 29.2959H40.207ZM119.227 29.1312H117.918V32.3598L119.233 32.3568C119.233 36.445 119.14 40.6426 119.255 44.7188C119.312 46.7854 119.67 48.1347 121.316 48.7457C122.464 49.1724 125.908 49.132 127.245 49.0482L127.242 45.8045C126.73 45.7701 125.895 45.8614 125.576 45.4781C125.049 44.4867 125.339 34.4414 125.341 32.4242L126.969 32.3448L126.998 29.1372L125.348 29.1102L125.333 25.9085L119.248 25.9115L119.227 29.1327V29.1312ZM49.0248 29.1312H47.7163V32.3568H49.0322C49.0219 36.4391 48.9453 40.6381 49.0543 44.7083C49.1869 49.5947 51.6198 49.1754 57.044 49.0646L57.0396 45.7896C56.3499 45.7671 55.8563 45.8435 55.3273 45.4841C54.9221 44.2741 55.1401 34.4489 55.1446 32.3583L56.7891 32.3359L56.7979 29.1986L55.1622 29.1177L55.1401 25.9549L49.0425 25.9115L49.0263 29.1297L49.0248 29.1312ZM110.139 29.1312L108.93 29.1506V32.3254L110.16 32.3643V49.0137C110.996 49.147 115.525 49.1665 116.271 48.9883L116.269 32.3568L117.715 32.3553L117.743 29.1372L115.175 29.1177C115.132 27.2443 115.346 27.3282 117.715 27.2847L117.746 24.1325C110.447 24.0291 110.374 24.5682 110.141 29.1327L110.139 29.1312ZM61.0624 48.3728C60.4155 48.7172 59.7701 48.6483 58.9655 48.6843L58.967 51.9444C61.198 51.9998 65.3387 52.1989 67.0834 51.2495C69.0992 50.1503 69.276 47.5926 69.6164 44.8836C70.2722 39.6467 71.1327 33.8858 71.5247 28.631L65.9929 28.637L65.0646 41.8451C64.5636 40.8837 64.1893 36.6367 63.98 35.1737C63.818 34.0445 63.6603 32.9409 63.4938 31.7982C63.4171 31.2741 63.3361 30.7245 63.2595 30.1734C63.2241 29.9219 63.1991 29.5789 63.1578 29.3468C63.0193 28.5786 63.1917 28.8751 62.7761 28.631H57.5199C57.906 31.5347 61.4824 47.0385 61.0609 48.3728H61.0624ZM99.6757 28.3165C93.2863 29.0518 93.9597 34.332 93.9582 40.3955C93.9582 43.1434 94.0408 46.0696 95.4568 47.7363C96.6843 49.1799 99.91 49.6966 102.414 49.3566C108.576 48.518 107.925 43.3711 107.926 37.3121C107.926 34.353 107.92 31.975 106.318 30.2199C105.028 28.8062 102.271 28.017 99.6742 28.3165H99.6757ZM100.068 34.383V43.4804C100.068 44.4283 99.9527 45.7282 100.872 45.803C101.982 45.8929 101.815 44.3549 101.815 43.4804V34.2287C101.815 33.3227 101.976 31.8372 100.865 31.9031C99.8982 31.96 100.069 33.453 100.069 34.383H100.068ZM83.8039 40.1559L78.0216 40.1529C77.7608 41.9334 78.0143 45.2445 78.7761 46.6476C79.5438 48.0613 81.3165 49.1275 83.4429 49.469C85.5972 49.8149 87.977 49.5244 89.6466 48.5824C91.4016 47.5941 92.131 46.3391 92.2533 43.6391C92.3535 41.4183 92.2253 38.7842 91.0671 37.2417C90.1844 36.0677 88.4957 34.7903 86.9721 33.8483C85.2333 32.7731 83.658 32.3448 83.7464 29.6044C83.7818 28.5127 84.4994 27.0736 85.5457 28.044C86.0481 28.5097 85.8566 30.8309 85.8566 31.6335L91.7523 31.668C91.7567 29.3229 91.8628 26.8744 90.485 25.4997C89.2266 24.2448 87.2255 23.6338 84.9341 23.5948C79.6234 23.505 77.525 25.895 77.8036 31.3056C78.1572 38.1747 85.4145 38.0594 86.085 41.5291C86.9544 46.0307 84.0485 46.399 83.8894 43.9356C83.8142 42.7706 83.994 41.2371 83.8069 40.1559H83.8039ZM38.035 39.0522L31.7694 39.0582C31.653 40.5767 31.9993 44.4702 31.3082 45.1112C30.7969 45.5859 29.9319 45.4182 29.6681 44.903C29.254 44.0914 29.4161 37.6296 29.4161 36.2339C29.4161 34.8637 29.0286 28.5801 29.951 27.9931C30.4977 27.6456 31.3391 27.7729 31.5646 28.324C31.7237 28.7104 31.7399 30.0207 31.7429 30.5284C31.7532 31.9839 31.706 33.4725 31.7547 34.9236L38.0733 34.991C38.228 32.4811 38.2531 28.1293 36.9814 26.3697C34.3997 22.8012 26.4513 22.2321 23.8461 27.0451C22.679 29.2001 23.0592 33.4036 23.0592 36.0781C23.0592 38.7976 22.8588 42.787 23.5219 45.2849C24.907 50.5022 33.1133 50.8676 36.4922 47.2946C38.1765 45.514 38.3533 40.984 38.035 39.0507V39.0522Z" fill="#230258"/>
</svg>
